solid OpenSCAD_Model
  facet normal -1 0 0
    outer loop
      vertex 0 0 0
      vertex 0 0.299999 0.0355597
      vertex 0 0.299999 0
    endloop
  endfacet
  facet normal -1 -0 0
    outer loop
      vertex 0 0.299999 0.0355597
      vertex 0 0 0
      vertex 0 0 0.0355597
    endloop
  endfacet
  facet normal 0 0 1
    outer loop
      vertex 20.3 26 0.0355597
      vertex 20 25.7 0.0355597
      vertex 20.3 0 0.0355597
    endloop
  endfacet
  facet normal 0 0 1
    outer loop
      vertex 20.3 26 0.0355597
      vertex 0.299999 25.7 0.0355597
      vertex 20 25.7 0.0355597
    endloop
  endfacet
  facet normal 0 0 1
    outer loop
      vertex 0.299999 25.7 0.0355597
      vertex 0 26 0.0355597
      vertex 0.299999 0.9 0.0355597
    endloop
  endfacet
  facet normal -0 0 1
    outer loop
      vertex 0 26 0.0355597
      vertex 0.299999 25.7 0.0355597
      vertex 20.3 26 0.0355597
    endloop
  endfacet
  facet normal -0 0 1
    outer loop
      vertex 20 0.299999 0.0355597
      vertex 20.3 0 0.0355597
      vertex 20 25.7 0.0355597
    endloop
  endfacet
  facet normal 0 0 1
    outer loop
      vertex 0 0 0.0355597
      vertex 20 0.299999 0.0355597
      vertex 0 0.299999 0.0355597
    endloop
  endfacet
  facet normal 0 0 1
    outer loop
      vertex 20 0.299999 0.0355597
      vertex 0 0 0.0355597
      vertex 20.3 0 0.0355597
    endloop
  endfacet
  facet normal 0 0 1
    outer loop
      vertex 19.7 25.4 0.0355597
      vertex 19.4 25.1 0.0355597
      vertex 19.7 0.599999 0.0355597
    endloop
  endfacet
  facet normal 0 0 1
    outer loop
      vertex 19.7 25.4 0.0355597
      vertex 0.9 25.1 0.0355597
      vertex 19.4 25.1 0.0355597
    endloop
  endfacet
  facet normal 0 0 1
    outer loop
      vertex 0.9 25.1 0.0355597
      vertex 0.599999 25.4 0.0355597
      vertex 0.9 1.5 0.0355597
    endloop
  endfacet
  facet normal -0 0 1
    outer loop
      vertex 0.599999 25.4 0.0355597
      vertex 0.9 25.1 0.0355597
      vertex 19.7 25.4 0.0355597
    endloop
  endfacet
  facet normal -0 0 1
    outer loop
      vertex 19.4 0.9 0.0355597
      vertex 19.7 0.599999 0.0355597
      vertex 19.4 25.1 0.0355597
    endloop
  endfacet
  facet normal -0 0 1
    outer loop
      vertex 0.299999 0.9 0.0355597
      vertex 19.7 0.599999 0.0355597
      vertex 19.4 0.9 0.0355597
    endloop
  endfacet
  facet normal 0 0 1
    outer loop
      vertex 0.299999 0.9 0.0355597
      vertex 0 0.599999 0.0355597
      vertex 19.7 0.599999 0.0355597
    endloop
  endfacet
  facet normal 0 0 1
    outer loop
      vertex 0 0.599999 0.0355597
      vertex 0.299999 0.9 0.0355597
      vertex 0 26 0.0355597
    endloop
  endfacet
  facet normal 0 0 1
    outer loop
      vertex 19.1 24.8 0.0355597
      vertex 18.8 24.5 0.0355597
      vertex 19.1 1.2 0.0355597
    endloop
  endfacet
  facet normal 0 0 1
    outer loop
      vertex 19.1 24.8 0.0355597
      vertex 1.5 24.5 0.0355597
      vertex 18.8 24.5 0.0355597
    endloop
  endfacet
  facet normal 0 0 1
    outer loop
      vertex 1.5 24.5 0.0355597
      vertex 1.2 24.8 0.0355597
      vertex 1.5 2.1 0.0355597
    endloop
  endfacet
  facet normal -0 0 1
    outer loop
      vertex 1.2 24.8 0.0355597
      vertex 1.5 24.5 0.0355597
      vertex 19.1 24.8 0.0355597
    endloop
  endfacet
  facet normal -0 0 1
    outer loop
      vertex 18.8 1.5 0.0355597
      vertex 19.1 1.2 0.0355597
      vertex 18.8 24.5 0.0355597
    endloop
  endfacet
  facet normal -0 0 1
    outer loop
      vertex 0.9 1.5 0.0355597
      vertex 19.1 1.2 0.0355597
      vertex 18.8 1.5 0.0355597
    endloop
  endfacet
  facet normal 0 0 1
    outer loop
      vertex 0.9 1.5 0.0355597
      vertex 0.599999 1.2 0.0355597
      vertex 19.1 1.2 0.0355597
    endloop
  endfacet
  facet normal 0 0 1
    outer loop
      vertex 0.599999 1.2 0.0355597
      vertex 0.9 1.5 0.0355597
      vertex 0.599999 25.4 0.0355597
    endloop
  endfacet
  facet normal 0 0 1
    outer loop
      vertex 18.5 24.2 0.0355597
      vertex 18.2 23.9 0.0355597
      vertex 18.5 1.8 0.0355597
    endloop
  endfacet
  facet normal 0 0 1
    outer loop
      vertex 18.5 24.2 0.0355597
      vertex 2.1 23.9 0.0355597
      vertex 18.2 23.9 0.0355597
    endloop
  endfacet
  facet normal -0 0 1
    outer loop
      vertex 1.8 24.2 0.0355597
      vertex 2.1 23.9 0.0355597
      vertex 18.5 24.2 0.0355597
    endloop
  endfacet
  facet normal 0 0 1
    outer loop
      vertex 1.8 3.6 0.0355597
      vertex 2.1 23.9 0.0355597
      vertex 1.8 24.2 0.0355597
    endloop
  endfacet
  facet normal 0 0 1
    outer loop
      vertex 2.1 23.9 0.0355597
      vertex 1.8 3.6 0.0355597
      vertex 2.1 3.6 0.0355597
    endloop
  endfacet
  facet normal -0 0 1
    outer loop
      vertex 18.2 2.1 0.0355597
      vertex 18.5 1.8 0.0355597
      vertex 18.2 23.9 0.0355597
    endloop
  endfacet
  facet normal -0 0 1
    outer loop
      vertex 1.5 2.1 0.0355597
      vertex 18.5 1.8 0.0355597
      vertex 18.2 2.1 0.0355597
    endloop
  endfacet
  facet normal 0 0 1
    outer loop
      vertex 1.5 2.1 0.0355597
      vertex 1.2 1.8 0.0355597
      vertex 18.5 1.8 0.0355597
    endloop
  endfacet
  facet normal 0 0 1
    outer loop
      vertex 1.2 1.8 0.0355597
      vertex 1.5 2.1 0.0355597
      vertex 1.2 24.8 0.0355597
    endloop
  endfacet
  facet normal -1 0 0
    outer loop
      vertex 20 0.299999 0
      vertex 20 25.7 0.0355597
      vertex 20 25.7 0
    endloop
  endfacet
  facet normal -1 -0 0
    outer loop
      vertex 20 25.7 0.0355597
      vertex 20 0.299999 0
      vertex 20 0.299999 0.0355597
    endloop
  endfacet
  facet normal 0 1 -0
    outer loop
      vertex 20 0.299999 0
      vertex 0 0.299999 0.0355597
      vertex 20 0.299999 0.0355597
    endloop
  endfacet
  facet normal 0 1 0
    outer loop
      vertex 0 0.299999 0.0355597
      vertex 20 0.299999 0
      vertex 0 0.299999 0
    endloop
  endfacet
  facet normal 0 0 -1
    outer loop
      vertex 2.1 3.6 0
      vertex 1.8 3.6 0
      vertex 2.1 23.9 0
    endloop
  endfacet
  facet normal 0 0 -1
    outer loop
      vertex 18.5 1.8 0
      vertex 18.2 2.1 0
      vertex 18.5 24.2 0
    endloop
  endfacet
  facet normal 0 0 -1
    outer loop
      vertex 18.5 1.8 0
      vertex 1.5 2.1 0
      vertex 18.2 2.1 0
    endloop
  endfacet
  facet normal -0 0 -1
    outer loop
      vertex 1.5 2.1 0
      vertex 1.2 1.8 0
      vertex 1.5 24.5 0
    endloop
  endfacet
  facet normal 0 0 -1
    outer loop
      vertex 1.2 1.8 0
      vertex 1.5 2.1 0
      vertex 18.5 1.8 0
    endloop
  endfacet
  facet normal 0 0 -1
    outer loop
      vertex 18.2 23.9 0
      vertex 18.5 24.2 0
      vertex 18.2 2.1 0
    endloop
  endfacet
  facet normal 0 0 -1
    outer loop
      vertex 2.1 23.9 0
      vertex 18.5 24.2 0
      vertex 18.2 23.9 0
    endloop
  endfacet
  facet normal 0 0 -1
    outer loop
      vertex 2.1 23.9 0
      vertex 1.8 24.2 0
      vertex 18.5 24.2 0
    endloop
  endfacet
  facet normal 0 0 -1
    outer loop
      vertex 1.8 24.2 0
      vertex 2.1 23.9 0
      vertex 1.8 3.6 0
    endloop
  endfacet
  facet normal 0 0 -1
    outer loop
      vertex 19.1 1.2 0
      vertex 18.8 1.5 0
      vertex 19.1 24.8 0
    endloop
  endfacet
  facet normal 0 0 -1
    outer loop
      vertex 19.1 1.2 0
      vertex 0.9 1.5 0
      vertex 18.8 1.5 0
    endloop
  endfacet
  facet normal -0 0 -1
    outer loop
      vertex 0.9 1.5 0
      vertex 0.599999 1.2 0
      vertex 0.9 25.1 0
    endloop
  endfacet
  facet normal 0 0 -1
    outer loop
      vertex 0.599999 1.2 0
      vertex 0.9 1.5 0
      vertex 19.1 1.2 0
    endloop
  endfacet
  facet normal 0 0 -1
    outer loop
      vertex 18.8 24.5 0
      vertex 19.1 24.8 0
      vertex 18.8 1.5 0
    endloop
  endfacet
  facet normal 0 0 -1
    outer loop
      vertex 1.5 24.5 0
      vertex 19.1 24.8 0
      vertex 18.8 24.5 0
    endloop
  endfacet
  facet normal 0 0 -1
    outer loop
      vertex 1.5 24.5 0
      vertex 1.2 24.8 0
      vertex 19.1 24.8 0
    endloop
  endfacet
  facet normal 0 0 -1
    outer loop
      vertex 1.2 24.8 0
      vertex 1.5 24.5 0
      vertex 1.2 1.8 0
    endloop
  endfacet
  facet normal 0 0 -1
    outer loop
      vertex 19.7 0.599999 0
      vertex 19.4 0.9 0
      vertex 19.7 25.4 0
    endloop
  endfacet
  facet normal 0 0 -1
    outer loop
      vertex 19.7 0.599999 0
      vertex 0.299999 0.9 0
      vertex 19.4 0.9 0
    endloop
  endfacet
  facet normal -0 0 -1
    outer loop
      vertex 0.299999 0.9 0
      vertex 0 0.599999 0
      vertex 0.299999 25.7 0
    endloop
  endfacet
  facet normal 0 0 -1
    outer loop
      vertex 0 0.599999 0
      vertex 0.299999 0.9 0
      vertex 19.7 0.599999 0
    endloop
  endfacet
  facet normal 0 0 -1
    outer loop
      vertex 19.4 25.1 0
      vertex 19.7 25.4 0
      vertex 19.4 0.9 0
    endloop
  endfacet
  facet normal 0 0 -1
    outer loop
      vertex 0.9 25.1 0
      vertex 19.7 25.4 0
      vertex 19.4 25.1 0
    endloop
  endfacet
  facet normal 0 0 -1
    outer loop
      vertex 0.9 25.1 0
      vertex 0.599999 25.4 0
      vertex 19.7 25.4 0
    endloop
  endfacet
  facet normal 0 0 -1
    outer loop
      vertex 0.599999 25.4 0
      vertex 0.9 25.1 0
      vertex 0.599999 1.2 0
    endloop
  endfacet
  facet normal 0 0 -1
    outer loop
      vertex 20.3 0 0
      vertex 20 0.299999 0
      vertex 20.3 26 0
    endloop
  endfacet
  facet normal 0 0 -1
    outer loop
      vertex 0 0 0
      vertex 20 0.299999 0
      vertex 20.3 0 0
    endloop
  endfacet
  facet normal -0 0 -1
    outer loop
      vertex 20 0.299999 0
      vertex 0 0 0
      vertex 0 0.299999 0
    endloop
  endfacet
  facet normal 0 0 -1
    outer loop
      vertex 20 25.7 0
      vertex 20.3 26 0
      vertex 20 0.299999 0
    endloop
  endfacet
  facet normal 0 0 -1
    outer loop
      vertex 0.299999 25.7 0
      vertex 20.3 26 0
      vertex 20 25.7 0
    endloop
  endfacet
  facet normal 0 0 -1
    outer loop
      vertex 0.299999 25.7 0
      vertex 0 26 0
      vertex 20.3 26 0
    endloop
  endfacet
  facet normal 0 0 -1
    outer loop
      vertex 0 26 0
      vertex 0.299999 25.7 0
      vertex 0 0.599999 0
    endloop
  endfacet
  facet normal 0 -1 0
    outer loop
      vertex 0 0 0
      vertex 20.3 0 0.0355597
      vertex 0 0 0.0355597
    endloop
  endfacet
  facet normal 0 -1 -0
    outer loop
      vertex 20.3 0 0.0355597
      vertex 0 0 0
      vertex 20.3 0 0
    endloop
  endfacet
  facet normal 1 -0 0
    outer loop
      vertex 20.3 0 0.0355597
      vertex 20.3 26 0
      vertex 20.3 26 0.0355597
    endloop
  endfacet
  facet normal 1 0 0
    outer loop
      vertex 20.3 26 0
      vertex 20.3 0 0.0355597
      vertex 20.3 0 0
    endloop
  endfacet
  facet normal 0 1 -0
    outer loop
      vertex 20.3 26 0
      vertex 0 26 0.0355597
      vertex 20.3 26 0.0355597
    endloop
  endfacet
  facet normal 0 1 0
    outer loop
      vertex 0 26 0.0355597
      vertex 20.3 26 0
      vertex 0 26 0
    endloop
  endfacet
  facet normal -1 0 0
    outer loop
      vertex 1.8 3.6 0
      vertex 1.8 24.2 0.0355597
      vertex 1.8 24.2 0
    endloop
  endfacet
  facet normal -1 -0 0
    outer loop
      vertex 1.8 24.2 0.0355597
      vertex 1.8 3.6 0
      vertex 1.8 3.6 0.0355597
    endloop
  endfacet
  facet normal -1 0 0
    outer loop
      vertex 18.2 2.1 0
      vertex 18.2 23.9 0.0355597
      vertex 18.2 23.9 0
    endloop
  endfacet
  facet normal -1 -0 0
    outer loop
      vertex 18.2 23.9 0.0355597
      vertex 18.2 2.1 0
      vertex 18.2 2.1 0.0355597
    endloop
  endfacet
  facet normal 0 1 -0
    outer loop
      vertex 18.5 24.2 0
      vertex 1.8 24.2 0.0355597
      vertex 18.5 24.2 0.0355597
    endloop
  endfacet
  facet normal 0 1 0
    outer loop
      vertex 1.8 24.2 0.0355597
      vertex 18.5 24.2 0
      vertex 1.8 24.2 0
    endloop
  endfacet
  facet normal 0 -1 0
    outer loop
      vertex 2.1 23.9 0
      vertex 18.2 23.9 0.0355597
      vertex 2.1 23.9 0.0355597
    endloop
  endfacet
  facet normal 0 -1 -0
    outer loop
      vertex 18.2 23.9 0.0355597
      vertex 2.1 23.9 0
      vertex 18.2 23.9 0
    endloop
  endfacet
  facet normal -1 0 0
    outer loop
      vertex 0 0.599999 0
      vertex 0 26 0.0355597
      vertex 0 26 0
    endloop
  endfacet
  facet normal -1 -0 0
    outer loop
      vertex 0 26 0.0355597
      vertex 0 0.599999 0
      vertex 0 0.599999 0.0355597
    endloop
  endfacet
  facet normal 1 -0 0
    outer loop
      vertex 0.299999 0.9 0.0355597
      vertex 0.299999 25.7 0
      vertex 0.299999 25.7 0.0355597
    endloop
  endfacet
  facet normal 1 0 0
    outer loop
      vertex 0.299999 25.7 0
      vertex 0.299999 0.9 0.0355597
      vertex 0.299999 0.9 0
    endloop
  endfacet
  facet normal 0 -1 0
    outer loop
      vertex 0 0.599999 0
      vertex 19.7 0.599999 0.0355597
      vertex 0 0.599999 0.0355597
    endloop
  endfacet
  facet normal 0 -1 -0
    outer loop
      vertex 19.7 0.599999 0.0355597
      vertex 0 0.599999 0
      vertex 19.7 0.599999 0
    endloop
  endfacet
  facet normal -1 0 0
    outer loop
      vertex 19.4 0.9 0
      vertex 19.4 25.1 0.0355597
      vertex 19.4 25.1 0
    endloop
  endfacet
  facet normal -1 -0 0
    outer loop
      vertex 19.4 25.1 0.0355597
      vertex 19.4 0.9 0
      vertex 19.4 0.9 0.0355597
    endloop
  endfacet
  facet normal 0 1 -0
    outer loop
      vertex 19.4 0.9 0
      vertex 0.299999 0.9 0.0355597
      vertex 19.4 0.9 0.0355597
    endloop
  endfacet
  facet normal 0 1 0
    outer loop
      vertex 0.299999 0.9 0.0355597
      vertex 19.4 0.9 0
      vertex 0.299999 0.9 0
    endloop
  endfacet
  facet normal 1 -0 0
    outer loop
      vertex 19.7 0.599999 0.0355597
      vertex 19.7 25.4 0
      vertex 19.7 25.4 0.0355597
    endloop
  endfacet
  facet normal 1 0 0
    outer loop
      vertex 19.7 25.4 0
      vertex 19.7 0.599999 0.0355597
      vertex 19.7 0.599999 0
    endloop
  endfacet
  facet normal 0 1 -0
    outer loop
      vertex 19.7 25.4 0
      vertex 0.599999 25.4 0.0355597
      vertex 19.7 25.4 0.0355597
    endloop
  endfacet
  facet normal 0 1 0
    outer loop
      vertex 0.599999 25.4 0.0355597
      vertex 19.7 25.4 0
      vertex 0.599999 25.4 0
    endloop
  endfacet
  facet normal -1 0 0
    outer loop
      vertex 1.2 1.8 0
      vertex 1.2 24.8 0.0355597
      vertex 1.2 24.8 0
    endloop
  endfacet
  facet normal -1 -0 0
    outer loop
      vertex 1.2 24.8 0.0355597
      vertex 1.2 1.8 0
      vertex 1.2 1.8 0.0355597
    endloop
  endfacet
  facet normal -1 0 0
    outer loop
      vertex 18.8 1.5 0
      vertex 18.8 24.5 0.0355597
      vertex 18.8 24.5 0
    endloop
  endfacet
  facet normal -1 -0 0
    outer loop
      vertex 18.8 24.5 0.0355597
      vertex 18.8 1.5 0
      vertex 18.8 1.5 0.0355597
    endloop
  endfacet
  facet normal 0 1 -0
    outer loop
      vertex 19.1 24.8 0
      vertex 1.2 24.8 0.0355597
      vertex 19.1 24.8 0.0355597
    endloop
  endfacet
  facet normal 0 1 0
    outer loop
      vertex 1.2 24.8 0.0355597
      vertex 19.1 24.8 0
      vertex 1.2 24.8 0
    endloop
  endfacet
  facet normal 0 -1 0
    outer loop
      vertex 1.5 24.5 0
      vertex 18.8 24.5 0.0355597
      vertex 1.5 24.5 0.0355597
    endloop
  endfacet
  facet normal 0 -1 -0
    outer loop
      vertex 18.8 24.5 0.0355597
      vertex 1.5 24.5 0
      vertex 18.8 24.5 0
    endloop
  endfacet
  facet normal -1 0 0
    outer loop
      vertex 0.599999 1.2 0
      vertex 0.599999 25.4 0.0355597
      vertex 0.599999 25.4 0
    endloop
  endfacet
  facet normal -1 -0 0
    outer loop
      vertex 0.599999 25.4 0.0355597
      vertex 0.599999 1.2 0
      vertex 0.599999 1.2 0.0355597
    endloop
  endfacet
  facet normal 1 -0 0
    outer loop
      vertex 0.9 1.5 0.0355597
      vertex 0.9 25.1 0
      vertex 0.9 25.1 0.0355597
    endloop
  endfacet
  facet normal 1 0 0
    outer loop
      vertex 0.9 25.1 0
      vertex 0.9 1.5 0.0355597
      vertex 0.9 1.5 0
    endloop
  endfacet
  facet normal 0 -1 0
    outer loop
      vertex 0.599999 1.2 0
      vertex 19.1 1.2 0.0355597
      vertex 0.599999 1.2 0.0355597
    endloop
  endfacet
  facet normal 0 -1 -0
    outer loop
      vertex 19.1 1.2 0.0355597
      vertex 0.599999 1.2 0
      vertex 19.1 1.2 0
    endloop
  endfacet
  facet normal 0 1 -0
    outer loop
      vertex 18.8 1.5 0
      vertex 0.9 1.5 0.0355597
      vertex 18.8 1.5 0.0355597
    endloop
  endfacet
  facet normal 0 1 0
    outer loop
      vertex 0.9 1.5 0.0355597
      vertex 18.8 1.5 0
      vertex 0.9 1.5 0
    endloop
  endfacet
  facet normal 1 -0 0
    outer loop
      vertex 19.1 1.2 0.0355597
      vertex 19.1 24.8 0
      vertex 19.1 24.8 0.0355597
    endloop
  endfacet
  facet normal 1 0 0
    outer loop
      vertex 19.1 24.8 0
      vertex 19.1 1.2 0.0355597
      vertex 19.1 1.2 0
    endloop
  endfacet
  facet normal 0 -1 0
    outer loop
      vertex 0.9 25.1 0
      vertex 19.4 25.1 0.0355597
      vertex 0.9 25.1 0.0355597
    endloop
  endfacet
  facet normal 0 -1 -0
    outer loop
      vertex 19.4 25.1 0.0355597
      vertex 0.9 25.1 0
      vertex 19.4 25.1 0
    endloop
  endfacet
  facet normal 1 -0 0
    outer loop
      vertex 1.5 2.1 0.0355597
      vertex 1.5 24.5 0
      vertex 1.5 24.5 0.0355597
    endloop
  endfacet
  facet normal 1 0 0
    outer loop
      vertex 1.5 24.5 0
      vertex 1.5 2.1 0.0355597
      vertex 1.5 2.1 0
    endloop
  endfacet
  facet normal 0 -1 0
    outer loop
      vertex 1.2 1.8 0
      vertex 18.5 1.8 0.0355597
      vertex 1.2 1.8 0.0355597
    endloop
  endfacet
  facet normal 0 -1 -0
    outer loop
      vertex 18.5 1.8 0.0355597
      vertex 1.2 1.8 0
      vertex 18.5 1.8 0
    endloop
  endfacet
  facet normal 0 1 -0
    outer loop
      vertex 18.2 2.1 0
      vertex 1.5 2.1 0.0355597
      vertex 18.2 2.1 0.0355597
    endloop
  endfacet
  facet normal 0 1 0
    outer loop
      vertex 1.5 2.1 0.0355597
      vertex 18.2 2.1 0
      vertex 1.5 2.1 0
    endloop
  endfacet
  facet normal 1 -0 0
    outer loop
      vertex 18.5 1.8 0.0355597
      vertex 18.5 24.2 0
      vertex 18.5 24.2 0.0355597
    endloop
  endfacet
  facet normal 1 0 0
    outer loop
      vertex 18.5 24.2 0
      vertex 18.5 1.8 0.0355597
      vertex 18.5 1.8 0
    endloop
  endfacet
  facet normal 0 -1 0
    outer loop
      vertex 0.299999 25.7 0
      vertex 20 25.7 0.0355597
      vertex 0.299999 25.7 0.0355597
    endloop
  endfacet
  facet normal 0 -1 -0
    outer loop
      vertex 20 25.7 0.0355597
      vertex 0.299999 25.7 0
      vertex 20 25.7 0
    endloop
  endfacet
  facet normal 1 -0 0
    outer loop
      vertex 2.1 3.6 0.0355597
      vertex 2.1 23.9 0
      vertex 2.1 23.9 0.0355597
    endloop
  endfacet
  facet normal 1 0 0
    outer loop
      vertex 2.1 23.9 0
      vertex 2.1 3.6 0.0355597
      vertex 2.1 3.6 0
    endloop
  endfacet
  facet normal 0 -1 0
    outer loop
      vertex 1.8 3.6 0
      vertex 2.1 3.6 0.0355597
      vertex 1.8 3.6 0.0355597
    endloop
  endfacet
  facet normal 0 -1 -0
    outer loop
      vertex 2.1 3.6 0.0355597
      vertex 1.8 3.6 0
      vertex 2.1 3.6 0
    endloop
  endfacet
endsolid OpenSCAD_Model
